<svg xmlns="http://www.w3.org/2000/svg" viewBox="0 0 126 88.335">
  <defs>
    <style>
      .cls-1 {
        fill: #6c611f;
      }
    </style>
  </defs>
  <g id="fg_logo" data-name="fg logo" transform="translate(-2.167 -14.152)">
    <path id="Path_1" data-name="Path 1" class="cls-1" d="M16.885,57.345V41.978S17.43,27.26,32.148,27.26H62.676L47.684,14.177H34.874S2.167,12.406,2.167,38.7v63.787H16.885V71.414H46.322V58.332H16.885Z" transform="translate(0 0)"/>
    <path id="Path_2" data-name="Path 2" class="cls-1" d="M77.41,49.91H93.542L108.6,73.046,89.272,100.628s-8.064.927-12.486.927q-20.353,0-32.086-11.264T32.966,59.266q0-19.879,12.825-32.408T79.9,14.331a69.281,69.281,0,0,1,23.646,3.706V35.857q-9.761-5.647-23.881-5.645-11.821,0-19.261,7.675A32.6,32.6,0,0,0,51.691,59.8c0,8.669,2.873,14.628,7.948,18.7,4.726,3.788,14.185,6.509,20.467,7.029l7.7-13.063" transform="translate(19.569 0.114)"/>
  </g>
</svg>
